<svg xmlns="http://www.w3.org/2000/svg" width="502" height="128" viewBox="0 0 502 128"><g fill="#FFF" fill-rule="evenodd" transform="translate(0 -.112)"><path fill-rule="nonzero" d="M39.5745324 93.184C65.6865324 93.184 76.6945324 82.56 76.6945324 66.56 76.6945324 50.688 67.2225324 43.136 51.2225324 41.088L31.3825324 38.528C20.2465324 37.12 14.9985324 34.432 14.9985324 25.728 14.9985324 17.536 20.5025324 12.288 36.2465324 12.288 55.1905324 12.288 60.8225324 20.736 61.5905324 30.08L75.6705324 30.08C75.0305324 14.336 64.9185324 0 36.3745324 0 13.2065324 0 1.43053237 9.984 1.43053237 26.112 1.43053237 40.704 10.5185324 48.128 25.3665324 50.048L48.2785324 52.992C58.1345324 54.272 63.1265324 59.136 63.1265324 66.432 63.1265324 76.288 55.9585324 80.896 40.2145324 80.896 18.0705324 80.896 14.6145324 71.936 14.1025324 62.72L.02253237 62.72C-.48946763 78.08 7.57453237 93.184 39.5745324 93.184ZM113.478532 91.648 129.222532 91.648 129.222532 80.128 118.470532 80.128C111.558532 80.128 109.254532 77.824 109.254532 70.784L109.254532 38.4 129.222532 38.4 129.222532 26.88 109.254532 26.88 109.254532 9.984 95.9425324 9.984 95.9425324 26.88 80.9665324 26.88 80.9665324 38.4 95.9425324 38.4 95.9425324 74.368C95.9425324 85.248 102.086532 91.648 113.478532 91.648ZM168.822532 93.184C188.534532 93.184 201.846532 79.744 201.846532 59.264 201.846532 38.656 188.534532 25.344 168.822532 25.344 149.110532 25.344 135.798532 38.784 135.798532 59.264 135.798532 79.744 149.110532 93.184 168.822532 93.184ZM168.694532 80.64C156.790532 80.64 149.494532 73.088 149.494532 59.264 149.494532 45.568 156.918532 37.888 168.694532 37.888 180.854532 37.888 188.278532 45.44 188.278532 59.264 188.278532 73.088 180.854532 80.64 168.694532 80.64ZM213.414532 91.648 226.726532 91.648 226.726532 58.24C226.726532 47.744 232.230532 40.32 243.494532 40.32L256.678532 40.32 256.678532 26.88 247.718532 26.88C237.222532 26.88 230.182532 32.384 226.726532 39.68L226.726532 26.88 213.414532 26.88 213.414532 91.648ZM264.662532 91.648 277.974532 91.648 277.974532 55.424C277.974532 43.392 284.630532 37.248 294.998532 37.248 305.622532 37.248 311.254532 43.136 311.254532 56.832L311.254532 91.648 324.566532 91.648 324.566532 52.48C324.566532 33.024 312.150532 25.344 298.838532 25.344 290.006532 25.344 282.454532 28.8 277.974532 35.072L277.974532 1.536 264.662532 1.536 264.662532 91.648Z" transform="translate(175.89 17.352)"/><path d="M128,0 L128,128 L0,128 L0,0 L128,0 Z M18,42 L18,92 L61,117 L61,67 L18,42 Z M111,42 L68,67 L68,117 L111,92 L111,42 Z M64.5,11 L21,36 L64.5,61 L108,36 L64.5,11 Z"/></g></svg>